<?xml version="1.0" encoding="UTF-8"?>
<svg id="Layer_2" data-name="Layer 2" xmlns="http://www.w3.org/2000/svg" viewBox="0 0 695.57 244.17">
  <defs>
    <style>
      .cls-1 {
        fill: #fff;
      }

      .cls-2, .cls-3 {
        fill: #231f20;
      }

      .cls-3 {
        stroke: #231f20;
        stroke-linejoin: round;
        stroke-width: 3px;
      }
    </style>
  </defs>
  <g id="Layer_1-2" data-name="Layer 1">
    <g>
      <path class="cls-2" d="m626.85,127.35c-.07-.1-.13-.2-.2-.3-.07-.1-.13-.2-.2-.3-.07-.1-.13-.2-.2-.3-.07-.1-.13-.2-.2-.3-.07-.1-.13-.2-.2-.3-.07-.1-.13-.2-.2-.3-.07-.1-.13-.2-.2-.3-.07-.1-.13-.2-.2-.3-.05-.08-.1-.16-.15-.23l3.21-2.52c3.83-3.04,6.36-6.32,7.73-10.02,1.47-3.97,1.17-7.78-.77-10.64-.04-.06-.08-.11-.12-.17-.06-.1-.14-.2-.2-.3-.06-.1-.14-.2-.2-.3-.06-.1-.14-.2-.2-.3-.06-.1-.14-.2-.2-.3-.06-.1-.14-.2-.2-.3-.06-.1-.14-.2-.2-.3-.06-.1-.14-.2-.2-.3-.06-.1-.14-.2-.2-.3-.06-.1-.14-.2-.2-.3-.06-.1-.14-.2-.2-.3-.06-.1-.14-.2-.2-.3-.06-.1-.14-.2-.2-.3-.06-.1-.14-.2-.2-.3-.06-.1-.14-.2-.2-.3-.06-.1-.14-.2-.2-.3-.06-.1-.14-.2-.2-.3-.06-.1-.14-.2-.2-.3-.06-.1-.14-.2-.2-.3-.06-.1-.14-.2-.2-.3-.06-.1-.14-.2-.2-.3-.06-.1-.14-.2-.2-.3-.06-.1-.14-.2-.2-.3-.06-.1-.14-.2-.2-.3-.06-.1-.14-.2-.2-.3-.06-.1-.14-.2-.2-.3-.06-.1-.14-.2-.2-.3-.06-.1-.14-.2-.2-.3-.06-.1-.14-.2-.2-.3-.05-.08-.11-.16-.16-.23-.26-.44-.55-.87-.89-1.27-2.97-3.69-9.77-7.6-20.02-7.6-7.45,0-15.04,2.04-21.96,5.56-.03-.04-.06-.07-.09-.11-.07-.1-.13-.2-.2-.3-.07-.1-.13-.2-.2-.3-.07-.1-.13-.2-.2-.3-1.86-2.82-5.36-4.56-10.04-4.56s-9.36,1.76-13.74,5.09c-.04.03-3.23,2.53-5.14,4.03,0-.01-.02-.02-.03-.03-.07-.1-.13-.2-.2-.3-.07-.1-.13-.2-.2-.3-.07-.1-.13-.2-.2-.3-.07-.1-.13-.2-.2-.3-.07-.1-.13-.2-.2-.3-.07-.1-.13-.2-.2-.3-.07-.1-.13-.2-.2-.3-.07-.1-.13-.2-.2-.3-.07-.1-.13-.2-.2-.3-.07-.1-.13-.2-.2-.3-.07-.1-.13-.2-.2-.3-.07-.1-.13-.2-.2-.3-.07-.1-.13-.2-.2-.3-.07-.1-.13-.2-.2-.3-.07-.1-.13-.2-.2-.3-1.83-2.71-5.1-4.43-9.38-4.59-.23-1.75-.85-3.33-1.82-4.67-.07-.1-.13-.2-.2-.3-.07-.1-.13-.2-.2-.3-.07-.1-.13-.2-.2-.3-.07-.1-.13-.2-.2-.3-.07-.1-.13-.2-.2-.3-.07-.1-.13-.2-.2-.3-.07-.1-.13-.2-.2-.3-.07-.1-.13-.2-.2-.3-.07-.1-.13-.2-.2-.3-.07-.1-.13-.2-.2-.3-.07-.1-.13-.2-.2-.3-.07-.1-.13-.2-.2-.3-.07-.1-.13-.2-.2-.3-.07-.1-.13-.2-.2-.3-.07-.1-.13-.2-.2-.3-.07-.1-.13-.2-.2-.3-.07-.1-.13-.2-.2-.3-.07-.1-.13-.2-.2-.3-.07-.1-.13-.2-.2-.3-.07-.1-.13-.2-.2-.3-.07-.1-.13-.2-.2-.3-.07-.1-.13-.2-.2-.3-.07-.1-.13-.2-.2-.3-.07-.1-.13-.2-.2-.3-.07-.1-.13-.2-.2-.3-.07-.1-.13-.2-.2-.3-.07-.1-.13-.2-.2-.3-.07-.1-.13-.2-.2-.3-.07-.1-.13-.2-.2-.3-.07-.1-.13-.2-.2-.3-2.03-3.02-5.73-4.9-10.6-4.9-9.53,0-19.95,7.19-23.23,16.02-.51,1.38-.82,2.72-.94,4-.58-.18-1.19-.32-1.82-.43-.03-.04-.06-.08-.09-.12-.06-.1-.14-.2-.2-.3-.06-.1-.14-.2-.2-.3-.06-.1-.14-.2-.2-.3-.06-.1-.14-.2-.2-.3-.06-.1-.14-.2-.2-.3-.06-.1-.14-.2-.2-.3-.06-.1-.14-.2-.2-.3-.06-.1-.14-.2-.2-.3-.06-.1-.14-.2-.2-.3-.06-.1-.14-.2-.2-.3-.06-.1-.14-.2-.2-.3-.06-.1-.14-.2-.2-.3-.06-.1-.14-.2-.2-.3-.06-.1-.14-.2-.2-.3-.06-.1-.14-.2-.2-.3-.06-.1-.14-.2-.2-.3-.06-.1-.14-.2-.2-.3-.06-.1-.14-.2-.2-.3-.06-.1-.14-.2-.2-.3-.06-.1-.14-.2-.2-.3-.06-.1-.14-.2-.2-.3-.06-.1-.14-.2-.2-.3-1.86-3.06-5.46-4.98-10.25-4.98-8.35,0-17.42,5.83-21.17,13.34-.52.23-1.04.48-1.55.74-2.02-2.19-5.17-3.51-9.14-3.51-3.05,0-6.23.76-9.21,2.13-3.28-1.4-7.06-2.13-11.22-2.13-9.24,0-18.79,3.51-26.89,9.27-.03-.04-.06-.07-.08-.11-.07-.1-.13-.2-.2-.3-.06-.1-.12-.19-.19-.28-.22-.34-.45-.67-.71-.98-2.97-3.69-9.77-7.6-20.01-7.6-8.11,0-16.39,2.42-23.79,6.54-.06-.07-.1-.16-.16-.23-.07-.1-.13-.2-.2-.3-.07-.1-.13-.2-.2-.3-.07-.1-.13-.2-.2-.3-.07-.1-.13-.2-.2-.3-.07-.1-.13-.2-.2-.3-.07-.1-.13-.2-.2-.3-.07-.1-.13-.2-.2-.3-1.9-2.6-5.2-4.22-9.52-4.22-6.7,0-13.36,1.65-19.48,4.56-.03-.04-.05-.07-.08-.11,0-.01-.01-.02-.02-.03-.03-.05-.06-.09-.09-.14-.03-.04-.06-.09-.09-.13,0-.01-.01-.02-.02-.03-.03-.05-.06-.09-.09-.14-.03-.04-.06-.09-.09-.13,0-.01-.01-.02-.02-.03-.03-.05-.06-.09-.09-.14-.03-.04-.06-.09-.1-.13,0,0-.01-.02-.02-.03-.03-.05-.06-.09-.09-.14-.03-.04-.06-.09-.09-.13,0-.01-.01-.02-.02-.03-.03-.05-.06-.09-.09-.14-.03-.04-.06-.09-.09-.13,0-.01-.01-.02-.02-.03-.03-.05-.06-.09-.09-.14-.03-.04-.06-.09-.09-.13,0-.01-.01-.02-.02-.03-.03-.05-.06-.09-.09-.14-.03-.04-.06-.09-.09-.13,0-.01-.01-.02-.02-.03-.03-.05-.06-.09-.09-.14-.03-.04-.06-.09-.09-.13,0-.01-.01-.02-.02-.03-.03-.05-.06-.09-.09-.14-.03-.04-.06-.09-.09-.13,0-.01-.01-.02-.02-.03-.03-.05-.06-.09-.09-.14-.03-.04-.06-.09-.09-.13,0-.01-.01-.02-.02-.03-.03-.05-.06-.09-.09-.14-.03-.04-.06-.09-.1-.13,0,0-.01-.02-.02-.03-.03-.05-.06-.09-.09-.14-.03-.04-.06-.09-.09-.13,0-.01-.01-.02-.02-.03-.03-.05-.06-.09-.09-.14-.03-.04-.06-.09-.09-.13,0-.01-.01-.02-.02-.03-.03-.05-.06-.09-.09-.14-.03-.04-.06-.09-.09-.13,0-.01-.01-.02-.02-.03-.03-.05-.06-.09-.09-.14-.03-.04-.06-.09-.09-.13,0-.01-.01-.02-.02-.03-.03-.05-.06-.09-.09-.14-.03-.04-.06-.09-.09-.13,0-.01-.01-.02-.02-.03-.03-.05-.06-.09-.09-.14-.03-.04-.06-.09-.09-.13,0-.01-.01-.02-.02-.03-.03-.05-.06-.09-.09-.14-.03-.04-.06-.09-.09-.13,0-.01-.01-.02-.02-.03-.03-.05-.06-.09-.09-.14-.03-.04-.06-.09-.09-.13,0-.01-.01-.02-.02-.03-.03-.05-.06-.09-.09-.14-.03-.04-.06-.09-.09-.13,0-.01-.01-.02-.02-.03-.03-.05-.06-.09-.09-.14-.03-.04-.06-.09-.09-.13,0-.01-.01-.02-.02-.03-.03-.05-.06-.09-.09-.14-.03-.04-.06-.09-.09-.13,0-.01-.01-.02-.02-.03-.03-.05-.06-.09-.09-.14-.03-.04-.06-.09-.09-.13,0-.01-.01-.02-.02-.03-.03-.05-.06-.09-.09-.14-.03-.04-.06-.09-.09-.13,0-.01-.01-.02-.02-.03-.03-.05-.06-.09-.09-.14-.03-.04-.06-.09-.09-.13,0-.01-.01-.02-.02-.03-.03-.05-.06-.09-.09-.14-.03-.04-.06-.09-.09-.13,0-.01-.01-.02-.02-.03-.03-.05-.06-.09-.09-.14-.03-.04-.06-.09-.09-.13,0-.01-.01-.02-.02-.03-.03-.05-.06-.09-.09-.14-.03-.04-.06-.09-.09-.13,0-.01-.01-.02-.02-.03-.03-.05-.06-.09-.09-.14-.03-.04-.06-.09-.09-.13,0-.01-.01-.02-.02-.03-.03-.05-.06-.09-.09-.14-.03-.04-.06-.09-.1-.13,0,0-.01-.02-.02-.03-.03-.05-.06-.09-.09-.14-5.17-7.67-14.97-12.07-26.9-12.07-24.66,0-50.62,17.87-59.08,40.69-4.24,11.43-3.17,21.63,2.06,28.95.07.1.13.2.2.3.07.1.13.2.2.3.07.1.13.2.2.3.07.1.13.2.2.3.07.1.13.2.2.3.07.1.13.2.2.3.07.1.13.2.2.3.07.1.13.2.2.3.07.1.13.2.2.3.07.1.13.2.2.3.07.1.13.2.2.3.07.1.13.2.2.3.07.1.13.2.2.3.07.1.13.2.2.3.07.1.13.2.2.3.07.1.13.2.2.3.07.1.13.2.2.3.07.1.13.2.2.3.07.1.13.2.2.3.07.1.13.2.2.3.07.1.13.2.2.3.07.1.13.2.2.3.07.1.13.2.2.3.07.1.13.2.2.3.07.1.13.2.2.3.07.1.13.2.2.3.07.1.13.2.2.3.07.1.13.2.2.3.07.1.13.2.2.3.07.1.13.2.2.3,5.16,7.47,14.56,12.04,27.03,12.04,9.81,0,20.39-2.98,29.88-8.31.01.02.02.03.04.05.07.1.13.2.2.3.07.1.13.2.2.3.07.1.13.2.2.3.07.1.13.2.2.3.07.1.13.2.2.3.07.1.13.2.2.3.07.1.13.2.2.3.07.1.13.2.2.3.07.1.13.2.2.3.07.1.13.2.2.3.07.1.13.2.2.3.07.1.13.2.2.3,1.91,2.88,5.42,4.68,10.05,4.68,9.01,0,18.85-6.79,21.95-15.14l1.43-3.84c.04.06.08.11.12.16.07.1.13.2.2.3.07.1.13.2.2.3.07.1.13.2.2.3.07.1.13.2.2.3.07.1.13.2.2.3.07.1.13.2.2.3.07.1.13.2.2.3.07.1.13.2.2.3.07.1.13.2.2.3.07.1.13.2.2.3.07.1.13.2.2.3.07.1.13.2.2.3.07.1.13.2.2.3.07.1.13.2.2.3.07.1.13.2.2.3.07.1.13.2.2.3.07.1.13.2.2.3.07.1.13.2.2.3.07.1.13.2.2.3.07.1.13.2.2.3.07.1.13.2.2.3.07.1.13.2.2.3.07.1.13.2.2.3.07.1.13.2.2.3.07.1.13.2.2.3.07.1.13.2.2.3.07.1.13.2.2.3.07.1.13.2.2.3.07.1.13.2.2.3.07.1.13.2.2.3,4.07,6.11,11.66,9.87,21.77,9.87s20.25-3.53,28.07-9.28c3.82,5.76,10.77,9.28,20.02,9.28,4.21,0,8.54-.72,12.83-2.11,1.97,1.35,4.56,2.11,7.6,2.11,8.34,0,17.38-5.82,21.14-13.31.04.06.08.12.12.17.07.1.13.2.2.3.07.1.13.2.2.3.07.1.13.2.2.3.07.1.13.2.2.3.07.1.13.2.2.3.07.1.13.2.2.3.07.1.13.2.2.3.07.1.13.2.2.3.07.1.13.2.2.3.07.1.13.2.2.3.07.1.13.2.2.3.07.1.13.2.2.3.07.1.13.2.2.3.07.1.13.2.2.3.07.1.13.2.2.3,3.79,5.44,10.7,8.66,20.09,8.66,4.07,0,8.32-1.43,12-3.78,2.01,2.35,5.25,3.78,9.38,3.78,4.93,0,10.1-2.03,14.29-5.24.06.08.11.18.18.26.07.1.13.2.2.3.07.1.13.2.2.3,1.95,2.7,5.37,4.38,9.83,4.38,4.86,0,9.58-1.71,14.02-5.09.04-.03,13.8-10.8,21.17-16.57.58,1.25,1.27,2.44,2.1,3.53.07.1.13.2.2.3.07.1.13.2.2.3.07.1.13.2.2.3.07.1.13.2.2.3.07.1.13.2.2.3.07.1.13.2.2.3.07.1.13.2.2.3.07.1.13.2.2.3.07.1.13.2.2.3.07.1.13.2.2.3.07.1.13.2.2.3.07.1.13.2.2.3.07.1.13.2.2.3.07.1.13.2.2.3.07.1.13.2.2.3.07.1.13.2.2.3.07.1.13.2.2.3.07.1.13.2.2.3.07.1.13.2.2.3.07.1.13.2.2.3.07.1.13.2.2.3.07.1.13.2.2.3.07.1.13.2.2.3.07.1.13.2.2.3.07.1.13.2.2.3.07.1.13.2.2.3.07.1.13.2.2.3.07.1.13.2.2.3.07.1.13.2.2.3.07.1.13.2.2.3,4.17,5.7,11.55,9.19,21.27,9.19s21.18-3.85,29.07-10.05c3.79-2.93,6.58-6.42,7.85-9.85,1.55-4.17,1.14-7.88-.78-10.56Zm-325.93-33.4c-2.41-2.99-6.12-5.02-11.63-5.02-10.93,0-22.68,8.37-26.6,18.94-3.92,10.57,1.62,18.94,12.55,18.94,5.51,0,10.73-2.03,15.36-5.02,2.49-1.59,4.75-2.56,6.65-2.56,3.9,0,6.05,2.91,4.71,6.52-.56,1.5-1.87,3.26-3.57,4.49-7.86,5.55-17.91,9.34-27.89,9.34-19.19,0-29.11-14.01-22.54-31.71,6.57-17.71,26.87-31.71,46.07-31.71,9.98,0,17.22,3.79,20.96,9.34.78,1.23.79,3,.23,4.49-1.34,3.61-5.65,6.52-9.54,6.52-1.9,0-3.44-.97-4.75-2.55Zm-2.24,16.42c-3.72.41-7.79,2-12.18,4.8-2.8,1.81-5.32,2.66-7.93,2.66-.06,0-.11,0-.17,0,.07-.23.14-.47.23-.71,2.07-5.59,8.04-9.96,13.59-9.96,2.61,0,4.5.84,6.01,2.71.15.18.31.33.46.5Zm43.71-6.03c-5.42,0-11.09,3.52-13.81,10.83l-6.76,18.23c-1.27,3.44-5.23,6.17-8.94,6.17s-5.64-2.73-4.36-6.17l6.76-18.23c5.07-13.65,18.53-22.29,31.36-22.29,3.42,0,5.23,2.55,4.05,5.73s-4.88,5.73-8.3,5.73Zm42.31,28.36c-4.57,3.61-12.34,6.87-20.51,6.87-14.63,0-21.58-10.22-16.71-23.34,4.84-13.04,19.3-23.34,34.03-23.34,7.79,0,12.57,2.99,14.38,5.29,1.06,1.23,1.26,2.99.61,4.76-.56,1.5-1.52,2.82-3.41,4.32l-17.29,13.57c-1.85,1.41-3.51,2.03-5.31,2.03-3.61,0-5.48-2.38-4.27-5.64.49-1.32,1.36-2.64,2.8-3.7l11.41-8.72c-.57-.26-2.12-.44-3.16-.44-6.75,0-13.93,5.29-16.38,11.89s.72,11.89,7.56,11.89c3.52,0,6.38-1.32,8.45-2.55,2.46-1.5,4.28-2.82,6.84-2.82,3.71,0,5.64,2.47,4.37,5.9-.46,1.23-1.68,2.73-3.4,4.05Zm56.94.7c-1.27,3.44-5.23,6.17-8.94,6.17-3.04,0-4.92-1.85-4.83-4.4-4.94,2.82-10.38,4.4-15.6,4.4-13.4,0-19.65-10.31-14.81-23.34,4.84-13.04,18.73-23.34,32.13-23.34,5.23,0,9.45,1.67,12.33,4.4,1.8-2.55,5.05-4.4,8.09-4.4,3.71,0,5.64,2.73,4.36,6.17l-12.75,34.35Zm39.69-5.28c3.42,0,5.23,2.55,4.05,5.73s-4.88,5.73-8.3,5.73c-12.83,0-19.89-8.63-14.82-22.29l4.48-12.07h-1.81c-3.42,0-5.23-2.55-4.05-5.73s4.88-5.73,8.3-5.73h1.81l1.96-5.29c1.27-3.44,5.23-6.17,8.94-6.17s5.64,2.73,4.36,6.17l-1.96,5.29h9.79c3.42,0,5.23,2.55,4.05,5.73-1.18,3.17-4.88,5.73-8.3,5.73h-9.79l-4.48,12.07c-2.71,7.31.35,10.83,5.77,10.83Zm26.07,5.28c-1.27,3.44-5.23,6.17-8.94,6.17s-5.64-2.73-4.36-6.17l12.75-34.35c1.27-3.44,5.23-6.17,8.94-6.17s5.64,2.73,4.36,6.17l-12.75,34.35Zm10.02-44.93c-4.18,0-6.42-3.17-4.99-7.05s6.03-7.05,10.22-7.05,6.42,3.17,4.99,7.05-6.04,7.05-10.22,7.05Zm56.47,13.74l-45.13,35.32c-1.85,1.41-3.51,2.03-5.6,2.03-3.71,0-5.64-2.73-4.36-6.17l12.75-34.35c1.27-3.44,5.23-6.17,8.94-6.17s5.64,2.73,4.36,6.17l-6.96,18.76,29.21-22.9c1.85-1.41,3.51-2.03,5.31-2.03,3.61,0,5.48,2.38,4.27,5.64-.46,1.23-1.42,2.55-2.8,3.7Zm34.4,30.48c-4.57,3.61-12.34,6.87-20.51,6.87-14.63,0-21.58-10.22-16.71-23.34,4.84-13.04,19.3-23.34,34.03-23.34,7.79,0,12.57,2.99,14.38,5.29,1.06,1.23,1.26,2.99.61,4.76-.56,1.5-1.52,2.82-3.41,4.32l-17.29,13.57c-1.85,1.41-3.51,2.03-5.31,2.03-3.61,0-5.48-2.38-4.27-5.64.49-1.32,1.36-2.64,2.8-3.7l11.41-8.72c-.57-.26-2.12-.44-3.16-.44-6.75,0-13.93,5.29-16.38,11.89-2.45,6.61.72,11.89,7.56,11.89,3.52,0,6.38-1.32,8.45-2.55,2.46-1.5,4.28-2.82,6.84-2.82,3.71,0,5.64,2.47,4.37,5.9-.46,1.23-1.68,2.73-3.4,4.05Z"/>
      <path class="cls-2" d="m427.25,104.35c-6.75,0-13.87,5.11-16.38,11.89-2.55,6.87.81,11.89,7.56,11.89s13.74-5.02,16.29-11.89c2.52-6.78-.81-11.89-7.47-11.89Z"/>
    </g>
    <path class="cls-2" d="m229.95,58.92c-.25-1.13-.68-2.18-1.25-3.12-.06-.12-.14-.23-.21-.34-.06-.12-.14-.23-.21-.34-.06-.12-.14-.23-.21-.34-.06-.12-.14-.23-.21-.34-.06-.12-.14-.23-.21-.34-.07-.12-.14-.23-.21-.34-.07-.12-.14-.23-.21-.34-.06-.12-.14-.23-.21-.34-.06-.12-.14-.23-.21-.34-.06-.12-.14-.23-.21-.34-.06-.12-.14-.23-.21-.34-.06-.12-.14-.23-.21-.34-.07-.12-.14-.23-.21-.34-.06-.12-.14-.23-.21-.34-.06-.12-.14-.23-.21-.34-.06-.12-.14-.23-.21-.34-.06-.12-.14-.23-.21-.34-.06-.12-.14-.23-.21-.34-.06-.12-.14-.23-.21-.34-.07-.12-.14-.23-.21-.34-.06-.12-.14-.23-.21-.34-.06-.12-.14-.23-.21-.34-.06-.12-.14-.23-.21-.34-.06-.12-.14-.23-.21-.34-.06-.12-.14-.23-.21-.34-.06-.12-.14-.23-.21-.34-.07-.12-.14-.23-.21-.34-.06-.12-.14-.23-.21-.34-.07-.12-.14-.23-.21-.34-.06-.12-.14-.23-.21-.34-1.43-2.57-3.94-4.4-7.02-5l-17.02-3.33-2.11-10.65c-.25-1.25-.72-2.4-1.36-3.43-.07-.12-.14-.23-.21-.34-.07-.12-.14-.23-.21-.34-.07-.12-.14-.23-.21-.34-.07-.12-.14-.23-.21-.34-.07-.12-.14-.23-.21-.34-.07-.12-.14-.23-.21-.34-.07-.12-.14-.23-.21-.34-.07-.12-.14-.23-.21-.34-.07-.12-.14-.23-.21-.34-.07-.12-.14-.23-.21-.34-.07-.12-.14-.23-.21-.34-.07-.12-.14-.23-.21-.34-.07-.12-.14-.23-.21-.34-.07-.12-.14-.23-.21-.34-.07-.12-.14-.23-.21-.34-.07-.12-.14-.23-.21-.34-.07-.12-.14-.23-.21-.34-.07-.12-.14-.23-.21-.34-.07-.12-.14-.23-.21-.34-.07-.12-.14-.23-.21-.34-.07-.12-.14-.23-.21-.34-.07-.12-.14-.23-.21-.34-.07-.12-.14-.23-.21-.34-.07-.12-.14-.23-.21-.34-.07-.12-.14-.23-.21-.34-.07-.12-.14-.23-.21-.34-.07-.12-.14-.23-.21-.34-.07-.12-.14-.23-.21-.34-.07-.12-.14-.23-.21-.34-.07-.12-.14-.23-.21-.34-1.71-2.99-4.89-4.95-8.64-5.11-4.06-.18-8.12,1.72-10.84,5.07l-17.04,20.96c-.26.32-.62.49-.75.5l-24.91,2.4c-4.68.45-8.98,3.55-10.97,7.9-1.62,3.55-1.43,7.41.49,10.45.07.12.14.23.21.34.07.12.14.23.21.34.07.12.14.23.21.34.07.12.14.23.21.34.07.12.14.23.21.34.07.12.14.23.21.34.07.12.14.23.21.34.07.12.14.23.21.34.07.12.14.23.21.34.07.12.14.23.21.34.07.12.14.23.21.34.07.12.14.23.21.34.07.12.14.23.21.34.07.12.14.23.21.34.07.12.14.23.21.34.07.12.14.23.21.34.07.12.14.23.21.34.07.12.14.23.21.34.07.12.14.23.21.34.07.12.14.23.21.34.07.12.14.23.21.34.07.12.14.23.21.34.07.12.14.23.21.34.07.12.14.23.21.34.07.12.14.23.21.34.07.12.14.23.21.34.07.12.14.23.21.34.07.12.14.23.21.34.07.12.14.23.21.34.07.12.14.23.21.34.15.27.32.53.5.78l4.86,6.85-10.37,21.91c-1.68,3.55-1.58,7.35.28,10.43.04.06.08.11.12.17.03.06.06.12.09.18.04.06.08.11.12.17.03.06.06.12.09.18.04.06.08.11.12.17.03.06.06.12.09.18.04.06.08.11.12.17.03.06.06.12.09.18.04.06.08.11.12.17.03.06.06.12.09.18.04.06.08.11.12.17.03.06.06.12.09.18.04.06.08.11.12.17.03.06.06.12.09.18.04.06.08.11.12.17.03.06.06.12.09.18.04.06.08.11.12.17.03.06.06.12.09.18.04.06.08.11.12.17.03.06.06.12.09.18.04.06.08.11.12.17.03.06.06.12.09.18.04.06.08.11.12.17.03.06.06.12.09.18.04.06.08.11.12.17.03.06.06.12.09.18.04.06.08.11.12.17.03.06.06.12.09.18.04.06.08.11.12.17.03.06.06.12.09.18.04.06.08.11.12.17.03.06.06.12.09.18.04.06.08.11.12.17.03.06.06.12.09.18.04.06.08.11.12.17.03.06.06.12.09.18.04.06.08.11.12.17.03.06.06.12.09.18.04.06.08.11.12.17.03.06.06.12.09.18.04.06.08.11.12.17.03.06.06.12.09.18.04.06.08.11.12.17.03.06.06.12.09.18.04.06.08.11.12.17.03.06.06.12.09.18.04.06.08.11.12.17.03.06.06.12.09.18.04.06.08.11.12.17.03.06.06.12.09.18.04.06.08.11.12.17.03.06.06.12.09.18.04.06.08.11.12.17.03.06.06.12.09.18.04.06.08.11.12.17.03.06.06.12.09.18.04.06.08.11.12.17.03.06.06.12.09.18.04.06.08.11.12.17.03.06.06.12.09.18.04.06.08.11.12.17.03.06.06.12.09.18,1.77,2.94,4.97,4.79,8.54,4.94,1.78.08,3.58-.25,5.35-.98l24.54-10.14,17.47,11.64c1.61,1.07,3.52,1.69,5.51,1.77,6.6.29,12.84-4.98,13.64-11.5l2.89-23.64c.05-.1.19-.3.44-.48l22.23-15.93c4.26-3.05,6.36-8.01,5.36-12.64Zm-15.37-3.01l-22.23,15.92c-1.65,1.18-2.76,2.93-2.97,4.69l-2.9,23.72c-.54,4.43-6.19,7.57-9.57,5.33l-18.08-12.04c-1.34-.89-3.23-.97-5.06-.22l-24.67,10.19c-4.6,1.9-8.27-1.65-6.21-6.01l11.06-23.37c.82-1.73.76-3.54-.15-4.83l-12.35-17.42c-2.3-3.25,1.08-8.59,5.73-9.04l24.91-2.4c1.85-.18,3.7-1.21,4.96-2.76l17.04-20.96c3.18-3.91,8.94-3.66,9.75.42l4.34,21.88c.32,1.62,1.53,2.79,3.22,3.12l22.88,4.47c4.27.83,4.44,6.33.29,9.3Z"/>
    <g>
      <path class="cls-2" d="m356.22,163.84c2.58,4.06,2.96,9.47,1.03,15.13-1.84,5.26-5.19,9.92-10.28,14.27l-4.25,3.59c.07.1.12.22.19.33.1.12.19.26.26.41l.29.43c.1.14.17.29.26.43s.17.29.26.43.19.26.26.41c.1.14.19.29.26.43l.29.43c.07.14.17.29.26.43,2.56,3.8,3.08,9.08,1.03,15.04-1.67,4.88-5.38,9.85-10.4,14.03-10.47,8.82-25.24,14.29-38.58,14.29s-23.28-5.26-28.71-13.84c-.1-.14-.19-.29-.29-.41-.1-.14-.17-.29-.26-.43s-.17-.29-.26-.43-.17-.29-.26-.43-.19-.29-.26-.43c-.1-.12-.19-.26-.29-.41-.07-.14-.17-.29-.26-.43s-.17-.29-.26-.43-.17-.29-.26-.43-.19-.29-.26-.41l-.29-.43c-.07-.14-.17-.29-.26-.43-.07-.12-.14-.26-.24-.38-11.95,11.76-27.61,19.31-42.69,19.31-5.62,0-10.68-1.03-15.01-2.99-3.94,1.91-8.1,2.99-12.07,2.99-5.93,0-10.47-2.39-13.05-6.24-.1-.14-.17-.29-.26-.43s-.17-.29-.26-.43c-.1-.12-.17-.24-.24-.36-5.57,4.57-12.43,7.46-18.96,7.46-4.04,0-7.48-1.08-10.09-3.01-5.69,1.98-11.43,3.01-17.02,3.01-12.57,0-21.94-5.26-26.94-13.84-.07-.14-.17-.29-.26-.43-.07-.14-.17-.29-.26-.43s-.19-.26-.26-.43c-.1-.14-.19-.26-.26-.41-.1-.14-.19-.29-.26-.43l-.29-.43c-.07-.14-.17-.29-.26-.43-.07-.14-.19-.26-.26-.41-.1-.14-.19-.29-.26-.43-.1-.14-.19-.29-.26-.43l-.29-.43c-.07-.14-.17-.26-.26-.43-.07-.14-.17-.26-.26-.41s-.19-.29-.26-.43c-.1-.14-.19-.29-.26-.43l-.29-.43c-.07-.14-.17-.26-.26-.41-.07-.14-.17-.29-.26-.43s-.19-.29-.26-.43l-.02-.02c-14.63,12.76-33.66,21.94-52.92,21.94-16.54,0-28.99-6.5-35.85-17.14-.1-.14-.17-.29-.26-.43s-.17-.29-.26-.43c-.1-.12-.19-.26-.26-.41l-.29-.43c-.07-.14-.17-.29-.26-.43s-.17-.29-.26-.43c-.1-.12-.17-.29-.26-.41-.1-.14-.19-.29-.26-.43l-.29-.43c-.07-.14-.17-.29-.26-.43s-.17-.29-.26-.41c-.1-.14-.17-.29-.26-.43s-.19-.29-.26-.43c-.1-.14-.19-.29-.26-.43l-.29-.43c-.1-.12-.17-.26-.26-.41s-.17-.29-.26-.43-.17-.29-.26-.43-.19-.29-.26-.43c-.1-.12-.19-.29-.29-.41-.07-.14-.17-.29-.26-.43s-.17-.29-.26-.43-.17-.29-.26-.43-.19-.29-.26-.41l-.29-.43c-.07-.14-.17-.29-.26-.43s-.17-.29-.26-.43-.17-.29-.26-.43c-.1-.12-.19-.29-.26-.41l-.29-.43c-6.93-10.42-8.34-24.93-2.72-41.23,11.23-32.48,45.66-57.92,78.38-57.92,15.8,0,28.8,6.26,35.66,17.19.05.05.07.12.12.19,0,0,.02.02.02.05.05.05.1.12.12.17.05.07.1.14.12.22.02,0,.02.02.02.02.05.07.1.14.12.19.05.07.1.14.12.19.02.02.02.05.02.05.05.07.1.12.14.19.02.07.07.12.12.19v.05c.05.07.1.12.14.19.05.05.07.12.12.19,0,0,0,.02.02.05.02.05.07.12.12.19.05.05.07.12.12.19l.02.02c.05.07.1.14.12.19.05.07.1.14.12.19.02.02.02.05.02.05.05.07.1.12.12.19.05.07.1.12.12.19t.02.05c.05.07.1.12.14.19.02.07.07.12.12.19v.05s.1.12.14.19c.05.05.07.12.12.19,0,0,0,.02.02.02.02.07.07.14.12.19.05.07.07.14.12.22,0,0,0,.02.02.02.05.07.07.12.12.19s.1.14.12.19c0,.02.02.02.02.05.05.07.1.12.12.19.05.07.1.12.12.19t.02.05s.1.12.14.19c.02.05.07.12.12.19v.05s.1.12.14.19c.02.05.07.12.12.19,0,0,0,.02.02.02.02.07.07.14.12.19.05.07.07.14.12.19,0,.02,0,.05.02.05.02.07.07.12.12.19s.07.12.12.19c0,.02.02.02.02.05.05.07.1.12.12.19.05.05.1.12.12.19.02,0,.02.02.02.05.05.05.1.12.14.19.02.05.07.12.1.19.02,0,.02.02.02.02.05.07.1.14.14.19.02.07.07.14.12.22v.02c.05.07.1.12.14.19s.07.14.12.19t.02.05c.02.07.07.12.12.19s.07.12.12.19c0,.02.02.02.02.05.05.05.1.12.12.19.05.05.1.12.12.19.02,0,.02.02.02.02.05.07.1.14.12.19.05.07.1.14.12.22.02,0,.02.02.02.02.05.07.1.12.14.19.02.07.07.14.12.19v.05c.05.07.1.12.14.19s.07.12.12.19t.02.05c.02.07.07.12.12.19.05.05.07.12.12.19,0,0,.02.02.02.05.05.05.1.12.12.19.05.05.1.12.12.19l.02.02c.05.07.1.14.12.19.05.07.1.14.12.19.02.02.02.05.02.05.05.07.1.12.14.19.02.07.07.12.12.19v.05c.05.07.1.12.14.19s.07.12.12.19t.02.05s.07.12.12.19c.05.05.07.12.12.19.6,1.03,1.05,2.15,1.39,3.37,9.7-6.33,20.63-10.09,31.24-10.09,5.5,0,10.52,1.03,14.87,3.04,3.97-1.96,8.17-3.04,12.24-3.04s7.46,1.1,10.04,3.04l1.84-5.31c4.11-11.9,17.16-21.56,29.11-21.56,6.12,0,10.76,2.53,13.29,6.6.1.14.19.29.26.43.1.14.19.29.26.43l.29.43c.1.12.17.26.26.41s.17.29.26.43.19.29.26.43c.1.14.19.29.26.43.1.12.19.26.29.41s.17.29.26.43.17.29.26.43.17.29.26.43.19.29.26.43c.1.12.19.26.29.41s.17.29.26.43.17.29.26.43.17.29.26.43c.1.12.19.26.26.41l.29.43c.07.14.17.29.26.43s.17.29.26.43.17.29.26.41c.1.14.19.29.26.43.1.14.19.29.26.43l.29.43c.1.14.17.29.26.43.1.12.17.26.26.41s.19.29.26.43c.1.14.19.29.26.43l.29.43c.1.12.17.26.26.41.93,1.41,1.63,3.01,2.01,4.73,10.23,1.1,17.95,5.98,22.33,13.39l.29.43c.07.14.17.29.26.43s.17.29.26.43.19.26.26.41c.1.14.19.29.26.43l.29.43c.07.14.17.29.26.43.07.14.17.26.26.41s.19.29.26.43c.1.14.19.29.26.43l.29.43c.07.14.17.26.26.43.07.12.17.26.26.41,12.38-11.66,28.73-19.15,44.58-19.15,13.6,0,22.61,5.57,26.56,10.8.43.57.81,1.2,1.17,1.82.07.12.14.22.22.33.07.14.17.29.26.43.07.14.19.26.26.41.1.14.19.29.26.43.1.14.19.29.26.43l.29.43c.07.14.17.26.26.43.07.14.19.26.26.41.1.14.19.29.26.43.1.14.19.29.26.43l.29.43c.07.14.17.26.26.41.07.14.19.29.26.43.1.14.19.29.26.43.1.14.19.29.26.43.1.14.19.26.26.43.1.14.19.26.29.41.07.14.17.29.26.43.07.14.19.29.26.43.1.14.19.26.26.43.1.14.19.26.26.41l.29.43c.07.14.17.29.26.43.07.14.19.29.26.43.1.14.19.26.26.41.1.14.19.29.26.43l.29.43c.07.14.17.29.26.43.07.14.19.26.26.43.05.07.12.17.17.26Zm-20.13,1.96c.88-2.51.6-5.02-.81-6.79-2.39-3.25-8.72-7.53-19.07-7.53-19.53,0-38.72,14.68-45.13,33.25-6.45,18.69,2.75,33.23,22.16,33.23,10.85,0,21.15-4.64,27.2-9.78,2.29-1.89,3.92-4.02,4.52-5.76,1.7-4.9-.88-8.41-5.78-8.41-3.42,0-5.83,1.89-9.08,4.02-2.75,1.77-6.55,3.63-11.21,3.63-9.08,0-13.29-7.53-10.04-16.92,3.25-9.42,12.79-16.92,21.75-16.92,1.39,0,3.44.24,4.18.62l-15.13,12.41c-1.91,1.51-3.06,3.39-3.71,5.28-1.6,4.64.88,8.01,5.67,8.01,2.39,0,4.59-.86,7.05-2.87l22.92-19.31c2.51-2.15,3.8-4.02,4.52-6.14Zm-75.1,18.93c6.41-18.57-1.86-33.25-19.65-33.25-6.93,0-14.01,2.27-20.34,6.02l7.27-21.06c1.7-4.9-.86-8.8-5.78-8.8s-10.16,3.9-11.86,8.8l-25.15,72.74c-1.67,4.9.88,8.77,5.81,8.77,4.02,0,8.34-2.63,10.61-6.26,3.78,4.02,9.42,6.26,16.47,6.26,17.78,0,36.21-14.65,42.62-33.23Zm-73.72-24.45c1.7-4.9-.88-8.8-5.78-8.8-4.04,0-8.34,2.65-10.73,6.29-3.82-3.9-9.44-6.29-16.37-6.29-17.76,0-36.19,14.68-42.62,33.25-6.41,18.57,1.89,33.23,19.65,33.23,6.93,0,14.15-2.25,20.7-6.26-.12,3.63,2.37,6.26,6.41,6.26,4.9,0,10.16-3.87,11.86-8.77l16.9-48.91Zm-81.3,15.68c2.03-5.52-.53-9.42-5.45-9.42h-30.5c-4.9,0-10.16,3.9-11.86,8.77-1.7,4.9.88,8.8,5.78,8.8h17.9c-8.27,10.4-19.53,15.68-29.11,15.68-14.49,0-21.85-11.93-16.64-26.99,5.19-15.04,20.77-26.96,35.28-26.96,7.31,0,12.24,2.89,15.42,7.15,1.63,2.27,3.78,3.66,6.31,3.66,5.16,0,10.88-4.16,12.67-9.3.72-2.13.72-4.64-.31-6.38-4.97-7.91-14.58-13.31-27.8-13.31-25.46,0-52.4,19.96-61.1,45.15-8.72,25.22,4.42,45.15,29.88,45.15s52.11-22.06,59.52-42Z"/>
      <path class="cls-1" d="m335.28,159.01c1.41,1.77,1.7,4.28.81,6.79-.72,2.13-2.01,3.99-4.52,6.14l-22.92,19.31c-2.46,2.01-4.66,2.87-7.05,2.87-4.78,0-7.27-3.37-5.67-8.01.65-1.89,1.79-3.78,3.71-5.28l15.13-12.41c-.74-.38-2.8-.62-4.18-.62-8.96,0-18.5,7.51-21.75,16.92-3.25,9.39.96,16.92,10.04,16.92,4.66,0,8.46-1.86,11.21-3.63,3.25-2.13,5.67-4.02,9.08-4.02,4.9,0,7.48,3.51,5.78,8.41-.6,1.74-2.22,3.87-4.52,5.76-6.05,5.14-16.35,9.78-27.2,9.78-19.41,0-28.61-14.53-22.16-33.23,6.41-18.57,25.6-33.25,45.13-33.25,10.35,0,16.68,4.28,19.07,7.53Z"/>
      <path class="cls-1" d="m241.34,151.49c17.78,0,26.05,14.68,19.65,33.25-6.41,18.57-24.84,33.23-42.62,33.23-7.05,0-12.69-2.25-16.47-6.26-2.27,3.63-6.6,6.26-10.61,6.26-4.92,0-7.48-3.87-5.81-8.77l25.15-72.74c1.7-4.9,6.96-8.8,11.86-8.8s7.48,3.9,5.78,8.8l-7.27,21.06c6.33-3.75,13.41-6.02,20.34-6.02Zm1.89,33.25c3.32-9.66-1.1-16.92-10.04-16.92s-17.93,7-21.39,16.3l-.48,1.36c-2.99,9.42,1.48,16.18,10.18,16.18s18.33-7.15,21.73-16.92Z"/>
      <path class="cls-2" d="m233.19,167.81c8.94,0,13.36,7.27,10.04,16.92-3.39,9.78-12.79,16.92-21.73,16.92s-13.17-6.76-10.18-16.18l.48-1.36c3.47-9.3,12.69-16.3,21.39-16.3Z"/>
      <path class="cls-1" d="m181.49,151.49c4.9,0,7.48,3.9,5.78,8.8l-16.9,48.91c-1.7,4.9-6.96,8.77-11.86,8.77-4.04,0-6.53-2.63-6.41-6.26-6.55,4.02-13.77,6.26-20.7,6.26-17.76,0-26.05-14.65-19.65-33.23,6.43-18.57,24.86-33.25,42.62-33.25,6.93,0,12.55,2.39,16.37,6.29,2.39-3.63,6.69-6.29,10.73-6.29Zm-20.32,33.25c3.35-9.66-1.08-16.92-9.9-16.92s-18.41,7.27-21.73,16.92c-3.39,9.78,1.08,16.92,10.02,16.92s18.24-7.15,21.61-16.92Z"/>
      <path class="cls-2" d="m151.27,167.81c8.82,0,13.24,7.27,9.9,16.92-3.37,9.78-12.79,16.92-21.61,16.92s-13.41-7.15-10.02-16.92c3.32-9.66,12.76-16.92,21.73-16.92Z"/>
      <path class="cls-1" d="m100.53,166.54c4.92,0,7.48,3.9,5.45,9.42-7.41,19.94-33.42,42-59.52,42s-38.6-19.94-29.88-45.15c8.7-25.19,35.64-45.15,61.1-45.15,13.22,0,22.83,5.4,27.8,13.31,1.03,1.74,1.03,4.25.31,6.38-1.79,5.14-7.51,9.3-12.67,9.3-2.53,0-4.69-1.39-6.31-3.66-3.18-4.25-8.1-7.15-15.42-7.15-14.51,0-30.09,11.93-35.28,26.96-5.21,15.06,2.15,26.99,16.64,26.99,9.59,0,20.84-5.28,29.11-15.68h-17.9c-4.9,0-7.48-3.9-5.78-8.8,1.7-4.88,6.96-8.77,11.86-8.77h30.5Z"/>
    </g>
    <g>
      <path class="cls-2" d="m502.99,159.71c1.63,2.32,2.03,5.55.88,9.11-2.03,6.21-8.22,11.43-14.58,12.6l-6.38,19.65c-2.37,7.27-10.25,13.17-17.62,13.17-3.8,0-6.72-1.6-8.32-4.14-.07-.07-.12-.17-.17-.26-.07-.1-.12-.19-.17-.26-.07-.1-.12-.19-.17-.29-.07-.07-.12-.17-.17-.26-.07-.1-.12-.19-.17-.29-.05-.07-.1-.17-.17-.26-.05-.1-.1-.19-.17-.26-.05-.1-.1-.19-.17-.29-.05-.07-.1-.17-.17-.26l-.14-.29c-.07-.07-.12-.17-.17-.26-.07-.1-.12-.19-.17-.26-.07-.1-.12-.19-.17-.29-.07-.07-.12-.17-.17-.26s-.1-.19-.17-.29c-.05-.07-.1-.17-.17-.26-.05-.1-.1-.19-.17-.26-.05-.1-.1-.19-.17-.29-.05-.07-.1-.17-.14-.26-.07-.1-.12-.19-.17-.26-1.51-2.15-1.98-5.07-1.2-8.27-2.41,1.03-4.95,1.77-7.51,2.13l-.81,2.53c-2.37,7.27-10.25,13.17-17.62,13.17-2.82,0-5.14-.88-6.81-2.34-2.32,1.12-4.78,1.77-7.17,1.77h-14.84c-3.8,0-6.72-1.6-8.32-4.14-.07-.1-.12-.19-.17-.29-.07-.07-.12-.17-.17-.26-.07-.1-.12-.19-.17-.26-.05-.1-.1-.19-.17-.29-.05-.07-.1-.17-.17-.26-.05-.1-.1-.19-.17-.29-.05-.07-.1-.17-.17-.26-.05-.1-.1-.19-.14-.26-.05-.05-.07-.07-.1-.12-6.43,4.04-13.84,6.43-21.3,6.43h-9.97c-3.8,0-6.72-1.6-8.32-4.11-.07-.1-.12-.19-.17-.29-.07-.1-.12-.19-.17-.26-.07-.1-.12-.19-.17-.29-.05-.07-.1-.17-.17-.26-.05-.1-.1-.19-.17-.26-.05-.1-.1-.19-.17-.29-.05-.1-.1-.19-.14-.26-.07-.1-.12-.19-.17-.29-.07-.07-.12-.17-.17-.26-.07-.1-.12-.19-.17-.26-.07-.1-.12-.19-.17-.29-.07-.07-.12-.17-.17-.26s-.1-.19-.17-.29c-.05-.07-.1-.17-.17-.26-.05-.1-.1-.19-.17-.26-.05-.1-.1-.19-.17-.29-.05-.07-.1-.17-.14-.26-.07-.1-.12-.19-.17-.29-.07-.07-.12-.17-.17-.26-.07-.1-.12-.19-.17-.26-1.65-2.39-2.08-5.69-.91-9.32l10.23-31.41c2.34-7.24,10.25-13.15,17.59-13.15h9.97c7.58,0,13.51,2.44,17.33,6.6,3.59-3.94,8.77-6.6,13.7-6.6h14.84c2.58,0,4.76.74,6.38,2.06,2.49-1.31,5.16-2.06,7.79-2.06h9.73c3.85,0,7.15.88,9.75,2.46,2.68-1.55,5.62-2.46,8.49-2.46h21.54c3.73,0,6.57,1.55,8.15,4.04.07.07.12.17.17.26.07.1.12.19.17.29.07.07.12.17.17.26.07.1.12.19.17.26.05.1.1.19.17.29.05.07.1.17.17.26.05.1.1.19.17.26l.14.29c.07.1.12.19.17.26.07.1.12.19.17.29.07.07.12.17.17.26.07.1.12.19.17.26.07.1.12.19.17.29s.1.19.17.26c.05.1.1.19.17.29.05.07.1.17.17.26.05.1.1.19.17.26l.14.29c.07.07.12.17.17.26.07.1.12.19.17.29Zm-11.57,3.37c.72-2.22-.5-3.99-2.75-3.99h-21.56c-2.25,0-4.61,1.77-5.33,3.99-.74,2.22.48,3.99,2.75,3.99h6.43l-9.2,28.28c-.76,2.34.57,4.28,2.96,4.28s4.97-1.94,5.74-4.28l9.18-28.28h6.43c2.27,0,4.64-1.77,5.35-3.99Zm-33.3,8.58c2.25-6.93-1.36-12.57-9.25-12.57h-9.73c-2.37,0-4.97,1.94-5.74,4.28l-10.37,31.98c-.76,2.34.57,4.28,2.94,4.28s4.97-1.94,5.74-4.28l5.02-15.47,1.05.33c-.72,2.22.5,3.99,2.75,3.99h.19c7.86,0,15.15-5.64,17.4-12.55Zm-30.41-8.58c.74-2.22-.5-3.99-2.75-3.99h-14.82c-2.39,0-4.97,1.94-5.74,4.28l-10.21,31.41c-.76,2.34.57,4.28,2.94,4.28h14.82c2.27,0,4.64-1.77,5.35-3.99.74-2.22-.48-3.99-2.75-3.99h-10.47l2.58-8.01h10.49c2.25,0,4.61-1.77,5.35-3.99.72-2.22-.5-3.99-2.75-3.99h-10.49l2.61-8.01h10.47c2.27,0,4.64-1.77,5.35-3.99Zm-34.21,15.99c3.63-11.14-1.89-19.98-14.41-19.98h-9.94c-2.39,0-4.97,1.94-5.74,4.28l-10.23,31.41c-.74,2.34.6,4.28,2.96,4.28h9.97c12.5,0,23.78-8.84,27.39-19.98Z"/>
      <path class="cls-1" d="m488.67,159.09c2.25,0,3.47,1.77,2.75,3.99s-3.08,3.99-5.35,3.99h-6.43l-9.18,28.28c-.76,2.34-3.37,4.28-5.74,4.28s-3.73-1.94-2.96-4.28l9.2-28.28h-6.43c-2.27,0-3.49-1.77-2.75-3.99.72-2.22,3.08-3.99,5.33-3.99h21.56Z"/>
      <path class="cls-1" d="m448.87,159.09c7.89,0,11.5,5.64,9.25,12.57-2.25,6.91-9.54,12.55-17.4,12.55h-.19c-2.25,0-3.47-1.77-2.75-3.99s3.11-3.99,5.35-3.99c2.51-.07,5.19-2.06,6-4.57.81-2.53-.6-4.59-3.13-4.59h-5.12l-4.16,12.81-5.02,15.47c-.76,2.34-3.37,4.28-5.74,4.28s-3.71-1.94-2.94-4.28l10.37-31.98c.76-2.34,3.37-4.28,5.74-4.28h9.73Z"/>
      <path class="cls-2" d="m446,167.07c2.53,0,3.94,2.06,3.13,4.59-.81,2.51-3.49,4.49-6,4.57-2.25,0-4.64,1.77-5.35,3.99l-1.05-.33,4.16-12.81h5.12Z"/>
      <path class="cls-1" d="m424.97,159.09c2.25,0,3.49,1.77,2.75,3.99-.72,2.22-3.08,3.99-5.35,3.99h-10.47l-2.61,8.01h10.49c2.25,0,3.47,1.77,2.75,3.99-.74,2.22-3.11,3.99-5.35,3.99h-10.49l-2.58,8.01h10.47c2.27,0,3.49,1.77,2.75,3.99-.72,2.22-3.08,3.99-5.35,3.99h-14.82c-2.37,0-3.71-1.94-2.94-4.28l10.21-31.41c.76-2.34,3.35-4.28,5.74-4.28h14.82Z"/>
      <path class="cls-1" d="m379.09,159.09c12.53,0,18.05,8.84,14.41,19.98-3.61,11.14-14.89,19.98-27.39,19.98h-9.97c-2.37,0-3.71-1.94-2.96-4.28l10.23-31.41c.76-2.34,3.35-4.28,5.74-4.28h9.94Zm5.45,19.98c2.15-6.67-.57-12-8.03-12h-5.62l-7.82,24h5.62c7.48,0,13.67-5.31,15.85-12Z"/>
      <path class="cls-2" d="m376.51,167.07c7.46,0,10.18,5.33,8.03,12-2.18,6.69-8.37,12-15.85,12h-5.62l7.82-24h5.62Z"/>
    </g>
    <path class="cls-3" d="m683.14,67.39c-27.85,4.04-29.41,7.32-31.34,65.89-1.92-58.57-3.48-61.84-31.34-65.89,27.85-4.04,29.41-7.32,31.34-65.89,1.92,58.57,3.48,61.84,31.34,65.89Z"/>
    <path class="cls-3" d="m694.07,118.22c-12.29,1.78-12.98,3.23-13.83,29.07-.85-25.84-1.54-27.29-13.83-29.07,12.29-1.78,12.98-3.23,13.83-29.07.85,25.84,1.54,27.29,13.83,29.07Z"/>
  </g>
</svg>